<svg id="visual" viewBox="0 0 900 200" width="900" height="200" xmlns="http://www.w3.org/2000/svg" xmlns:xlink="http://www.w3.org/1999/xlink" version="1.1"><rect x="0" y="0" width="900" height="200" fill="#202731"></rect><path d="M0 88L11.5 78C23 68 46 48 69 35C92 22 115 16 138.2 22.2C161.3 28.3 184.7 46.7 207.8 50.8C231 55 254 45 277 59.8C300 74.7 323 114.3 346 111C369 107.7 392 61.3 415.2 65.8C438.3 70.3 461.7 125.7 484.8 146.8C508 168 531 155 554 147.5C577 140 600 138 623 141.3C646 144.7 669 153.3 692.2 148.5C715.3 143.7 738.7 125.3 761.8 127.3C785 129.3 808 151.7 831 161.5C854 171.3 877 168.7 888.5 167.3L900 166L900 201L888.5 201C877 201 854 201 831 201C808 201 785 201 761.8 201C738.7 201 715.3 201 692.2 201C669 201 646 201 623 201C600 201 577 201 554 201C531 201 508 201 484.8 201C461.7 201 438.3 201 415.2 201C392 201 369 201 346 201C323 201 300 201 277 201C254 201 231 201 207.8 201C184.7 201 161.3 201 138.2 201C115 201 92 201 69 201C46 201 23 201 11.5 201L0 201Z" fill="#444a4f"></path><path d="M0 66L11.5 85.3C23 104.7 46 143.3 69 142.8C92 142.3 115 102.7 138.2 101.8C161.3 101 184.7 139 207.8 142.3C231 145.7 254 114.3 277 108.8C300 103.3 323 123.7 346 126.2C369 128.7 392 113.3 415.2 98.7C438.3 84 461.7 70 484.8 81.7C508 93.3 531 130.7 554 130.3C577 130 600 92 623 94.3C646 96.7 669 139.3 692.2 138.3C715.3 137.3 738.7 92.7 761.8 85.3C785 78 808 108 831 120.3C854 132.7 877 127.3 888.5 124.7L900 122L900 201L888.5 201C877 201 854 201 831 201C808 201 785 201 761.8 201C738.7 201 715.3 201 692.2 201C669 201 646 201 623 201C600 201 577 201 554 201C531 201 508 201 484.8 201C461.7 201 438.3 201 415.2 201C392 201 369 201 346 201C323 201 300 201 277 201C254 201 231 201 207.8 201C184.7 201 161.3 201 138.2 201C115 201 92 201 69 201C46 201 23 201 11.5 201L0 201Z" fill="#4b5659"></path><path d="M0 77L11.5 90C23 103 46 129 69 145.8C92 162.7 115 170.3 138.2 173.5C161.3 176.7 184.7 175.3 207.8 159.3C231 143.3 254 112.7 277 98.8C300 85 323 88 346 101C369 114 392 137 415.2 152.5C438.3 168 461.7 176 484.8 166.2C508 156.3 531 128.7 554 116.7C577 104.7 600 108.3 623 121.2C646 134 669 156 692.2 149.5C715.3 143 738.7 108 761.8 104C785 100 808 127 831 145.2C854 163.3 877 172.7 888.5 177.3L900 182L900 201L888.5 201C877 201 854 201 831 201C808 201 785 201 761.8 201C738.7 201 715.3 201 692.2 201C669 201 646 201 623 201C600 201 577 201 554 201C531 201 508 201 484.8 201C461.7 201 438.3 201 415.2 201C392 201 369 201 346 201C323 201 300 201 277 201C254 201 231 201 207.8 201C184.7 201 161.3 201 138.2 201C115 201 92 201 69 201C46 201 23 201 11.5 201L0 201Z" fill="#556260"></path><path d="M0 186L11.5 171.3C23 156.7 46 127.3 69 124.5C92 121.7 115 145.3 138.2 153.2C161.3 161 184.7 153 207.8 147.7C231 142.3 254 139.7 277 130.8C300 122 323 107 346 113.8C369 120.7 392 149.3 415.2 155C438.3 160.7 461.7 143.3 484.8 143.5C508 143.7 531 161.3 554 157.7C577 154 600 129 623 117C646 105 669 106 692.2 109.5C715.3 113 738.7 119 761.8 128.5C785 138 808 151 831 154.8C854 158.7 877 153.3 888.5 150.7L900 148L900 201L888.5 201C877 201 854 201 831 201C808 201 785 201 761.8 201C738.7 201 715.3 201 692.2 201C669 201 646 201 623 201C600 201 577 201 554 201C531 201 508 201 484.8 201C461.7 201 438.3 201 415.2 201C392 201 369 201 346 201C323 201 300 201 277 201C254 201 231 201 207.8 201C184.7 201 161.3 201 138.2 201C115 201 92 201 69 201C46 201 23 201 11.5 201L0 201Z" fill="#646e66"></path><path d="M0 133L11.5 133.8C23 134.7 46 136.3 69 142.2C92 148 115 158 138.2 164.3C161.3 170.7 184.7 173.3 207.8 171.5C231 169.7 254 163.3 277 158C300 152.7 323 148.3 346 150.2C369 152 392 160 415.2 168C438.3 176 461.7 184 484.8 180C508 176 531 160 554 159.5C577 159 600 174 623 170.7C646 167.3 669 145.7 692.2 146.5C715.3 147.3 738.7 170.7 761.8 177.7C785 184.7 808 175.3 831 164.3C854 153.3 877 140.7 888.5 134.3L900 128L900 201L888.5 201C877 201 854 201 831 201C808 201 785 201 761.8 201C738.7 201 715.3 201 692.2 201C669 201 646 201 623 201C600 201 577 201 554 201C531 201 508 201 484.8 201C461.7 201 438.3 201 415.2 201C392 201 369 201 346 201C323 201 300 201 277 201C254 201 231 201 207.8 201C184.7 201 161.3 201 138.2 201C115 201 92 201 69 201C46 201 23 201 11.5 201L0 201Z" fill="#75786d"></path><path d="M0 179L11.5 181.3C23 183.7 46 188.3 69 185.5C92 182.7 115 172.3 138.2 171.3C161.3 170.3 184.7 178.7 207.8 180C231 181.3 254 175.7 277 171.8C300 168 323 166 346 162.5C369 159 392 154 415.2 152.8C438.3 151.7 461.7 154.3 484.8 155.3C508 156.3 531 155.7 554 155.2C577 154.7 600 154.3 623 156.7C646 159 669 164 692.2 164.8C715.3 165.7 738.7 162.3 761.8 166.5C785 170.7 808 182.3 831 184.8C854 187.3 877 180.7 888.5 177.3L900 174L900 201L888.5 201C877 201 854 201 831 201C808 201 785 201 761.8 201C738.7 201 715.3 201 692.2 201C669 201 646 201 623 201C600 201 577 201 554 201C531 201 508 201 484.8 201C461.7 201 438.3 201 415.2 201C392 201 369 201 346 201C323 201 300 201 277 201C254 201 231 201 207.8 201C184.7 201 161.3 201 138.2 201C115 201 92 201 69 201C46 201 23 201 11.5 201L0 201Z" fill="#888277"></path></svg>